HIERARCHY
ROOT Hips
{
	OFFSET 228.634003 92.561920 -263.051910
	CHANNELS 6 Xposition Yposition Zposition Zrotation Yrotation Xrotation 
	JOINT LeftUpLeg
	{
		OFFSET 0.103458 1.857820 10.548502
		CHANNELS 3 Zrotation Yrotation Xrotation
		JOINT LeftLeg
		{
			OFFSET 43.500000 -0.000023 -0.000011
			CHANNELS 3 Zrotation Yrotation Xrotation
			JOINT LeftFoot
			{
				OFFSET 42.372192 0.000038 0.000002
				CHANNELS 3 Zrotation Yrotation Xrotation
				JOINT LeftToe
				{
					OFFSET 17.299992 -0.000004 0.000006
					CHANNELS 3 Zrotation Yrotation Xrotation
					End Site
					{
						OFFSET 0.000000 0.000000 0.000000
					}
				}
			}
		}
	}
	JOINT RightUpLeg
	{
		OFFSET 0.103461 1.857814 -10.548508
		CHANNELS 3 Zrotation Yrotation Xrotation
		JOINT RightLeg
		{
			OFFSET 43.500042 -0.000015 0.000008
			CHANNELS 3 Zrotation Yrotation Xrotation
			JOINT RightFoot
			{
				OFFSET 42.372253 0.000008 0.000006
				CHANNELS 3 Zrotation Yrotation Xrotation
				JOINT RightToe
				{
					OFFSET 17.299973 -0.000014 0.000011
					CHANNELS 3 Zrotation Yrotation Xrotation
					End Site
					{
						OFFSET 0.000000 0.000000 0.000000
					}
				}
			}
		}
	}
	JOINT Spine
	{
		OFFSET 6.901966 -2.603737 -0.000007
		CHANNELS 3 Zrotation Yrotation Xrotation
		JOINT Spine1
		{
			OFFSET 12.588102 0.000017 0.000001
			CHANNELS 3 Zrotation Yrotation Xrotation
			JOINT Spine2
			{
				OFFSET 12.343197 -0.000013 0.000000
				CHANNELS 3 Zrotation Yrotation Xrotation
				JOINT Neck
				{
					OFFSET 25.832905 -0.000008 0.000000
					CHANNELS 3 Zrotation Yrotation Xrotation
					JOINT Head
					{
						OFFSET 11.766610 0.000009 -0.000002
						CHANNELS 3 Zrotation Yrotation Xrotation
						End Site
						{
							OFFSET 0.000000 0.000000 0.000000
						}
					}
				}
				JOINT LeftShoulder
				{
					OFFSET 19.745903 -1.480377 6.000115
					CHANNELS 3 Zrotation Yrotation Xrotation
					JOINT LeftArm
					{
						OFFSET 11.284125 -0.000014 -0.000024
						CHANNELS 3 Zrotation Yrotation Xrotation
						JOINT LeftForeArm
						{
							OFFSET 33.000046 -0.000012 0.000029
							CHANNELS 3 Zrotation Yrotation Xrotation
							JOINT LeftHand
							{
								OFFSET 25.199989 0.000034 0.000012
								CHANNELS 3 Zrotation Yrotation Xrotation
								End Site
								{
									OFFSET 0.000000 0.000000 0.000000
								}
							}
						}
					}
				}
				JOINT RightShoulder
				{
					OFFSET 19.746098 -1.480362 -6.000071
					CHANNELS 3 Zrotation Yrotation Xrotation
					JOINT RightArm
					{
						OFFSET 11.284137 -0.000006 -0.000008
						CHANNELS 3 Zrotation Yrotation Xrotation
						JOINT RightForeArm
						{
							OFFSET 33.000095 0.000017 0.000000
							CHANNELS 3 Zrotation Yrotation Xrotation
							JOINT RightHand
							{
								OFFSET 25.199778 0.000144 0.000423
								CHANNELS 3 Zrotation Yrotation Xrotation
								End Site
								{
									OFFSET 0.000000 0.000000 0.000000
								}
							}
						}
					}
				}
			}
		}
	}
}
MOTION
Frames: 8
Frame Time: 0.033333
-33.239769 43.976151 -375.213287 114.148806 -34.058571 33.874784 116.850125 -18.251602 164.008797 -136.890405 4.731402 -3.157079 65.072367 -1.697101 -9.348587 21.454555 0.003097 0.000000 164.678716 24.145996 177.767039 -68.749296 0.939450 7.215297 73.001711 -3.016166 6.647521 21.454557 -0.003107 -0.000019 14.548303 -3.081528 2.527198 18.984741 -6.535727 4.520128 18.665488 -6.508204 4.559576 -23.840990 -16.433205 -6.029990 -14.731302 18.472192 -18.701545 106.168740 -82.619211 72.754649 -78.719296 0.852834 8.495467 -29.672661 -14.522300 1.192747 -9.665516 -30.339267 52.645425 92.418402 73.255220 -87.366930 -45.301561 -1.353051 -22.953530 -22.810160 12.347760 -0.965837 -13.777632 46.857355 -26.151071 
-32.685940 43.680130 -374.101013 109.254996 -32.854351 34.044798 123.042033 -20.821792 164.892678 -136.509800 4.405414 0.077222 66.517136 -3.357817 -7.849820 21.454555 0.003101 -0.000002 159.284055 23.538896 177.461811 -77.660699 -0.012936 7.987234 73.582024 -3.918629 5.458384 21.454558 -0.003108 -0.000015 14.551254 -2.709022 2.463005 19.000644 -5.785604 4.452004 18.681843 -5.758511 4.486887 -25.059353 -13.496514 -4.211185 -13.599513 16.496182 -15.031880 106.087345 -81.733281 72.914988 -74.520984 2.955167 8.623214 -31.189591 -15.132414 1.261701 -4.726046 -26.943770 50.195521 91.442511 73.679211 -88.301034 -49.372757 -1.013598 -23.511669 -26.308053 14.209118 -1.138486 -6.240360 33.126708 -23.443733 
-32.256649 43.483860 -373.089386 104.376909 -31.417152 34.045020 129.612634 -23.070600 165.655938 -135.679591 4.231494 3.510058 67.648932 -5.427143 -6.938794 21.454551 0.003089 0.000003 153.185201 22.155305 176.787029 -86.882151 -1.533836 10.985148 75.596015 -5.626763 7.101277 21.454560 -0.003105 -0.000015 14.565877 -2.239918 2.408024 19.041847 -4.845556 4.417526 18.723574 -4.818687 4.446707 -23.952323 -10.072507 -2.417307 -14.026843 13.915015 -11.013499 105.978267 -81.364506 73.056967 -70.197980 4.028727 9.598870 -32.090250 -15.338093 1.293409 -0.100127 -22.265279 47.401772 89.626255 73.913029 -90.087798 -53.875122 -0.894070 -19.750923 -29.962650 16.935432 -1.378984 0.391641 14.731659 -25.876317 
-31.940880 43.403751 -372.120392 99.680068 -29.870200 34.033600 136.406118 -24.930607 166.416494 -134.137894 4.126472 7.657054 68.341227 -8.289635 -6.655606 21.454543 0.003100 0.000003 146.613480 20.160792 176.428158 -95.822186 -3.270345 13.421539 77.375962 -7.559155 6.367543 21.454551 -0.003101 -0.000014 14.688604 -1.651571 2.426940 19.300738 -3.684920 4.546030 18.983035 -3.657296 4.568175 -23.375735 -7.766658 -0.471070 -14.065771 11.641861 -7.399169 101.258203 -81.140332 77.799598 -66.273093 4.009438 10.067000 -32.388211 -15.209627 1.291387 5.736070 -14.340189 39.031314 85.546111 73.874807 -94.129494 -59.574139 -0.309567 -15.938149 -31.587818 17.819419 -1.468486 7.239440 -0.680373 -35.224805 
-31.666670 43.434841 -371.149994 95.781116 -28.443587 34.150512 142.465930 -25.981000 167.314568 -132.007503 4.054446 12.140500 68.795926 -11.742463 -7.223640 21.454550 0.003087 -0.000004 139.411087 17.925604 175.860118 -104.179707 -4.268441 15.060991 78.088378 -8.659833 6.476426 21.454560 -0.003105 -0.000015 14.779788 -1.017556 2.467342 19.500538 -2.436607 4.728492 19.183321 -2.407889 4.743094 -23.560172 -3.705338 1.017972 -13.831697 7.802350 -3.057164 91.551726 -80.151259 87.581870 -62.300368 3.708050 8.016880 -31.797420 -14.861351 1.256662 12.422638 -1.527543 19.427833 82.114030 74.149633 -97.491641 -66.358095 0.491416 -15.133196 -29.172821 16.394363 -1.329157 9.796287 -7.009408 -38.614946 
-31.431601 43.365372 -370.423401 92.545901 -26.939813 34.389111 147.507989 -26.492108 168.382345 -130.002392 4.032431 16.619117 69.230388 -14.903715 -6.994490 21.454553 0.003078 -0.000008 131.581286 15.435396 175.285153 -112.078596 -4.976571 15.405729 80.480044 -8.906368 6.573972 21.454548 -0.003110 -0.000023 14.822327 -0.335828 2.431762 19.610050 -1.079215 4.771321 19.293099 -1.050285 4.777745 -22.193440 0.296022 2.316126 -14.637563 4.450288 0.857070 88.955735 -78.483989 90.313522 -57.968020 3.253908 4.211464 -28.759133 -12.044218 1.016109 18.992369 13.390279 10.927104 79.677107 74.650197 -99.852366 -72.321397 0.279360 -12.737768 -28.217407 15.944918 -1.282667 10.155854 -8.565326 -37.812747 
-31.192101 43.435921 -369.778809 89.479446 -25.639956 34.626102 151.823767 -27.037903 169.315759 -127.891700 4.094431 20.568061 69.213927 -17.646494 -6.527556 21.454557 0.003093 0.000004 123.155086 11.862305 175.366050 -118.638391 -5.506198 15.168877 83.733120 -8.622597 7.463479 21.454562 -0.003108 -0.000022 14.989929 0.471031 2.366837 19.978315 0.526014 4.779314 19.661424 0.554954 4.776083 -20.487306 3.423162 3.653140 -15.835327 0.960216 4.497764 88.556497 -78.061993 90.746822 -53.060659 3.606193 7.703593 -27.755903 -11.694550 0.975643 19.676469 10.523944 28.692716 77.672720 75.042715 -101.796006 -77.101784 0.768302 -11.778870 -30.356137 16.614322 -1.366246 9.062043 -8.129389 -35.367420 
-31.123911 43.599838 -369.219086 87.100792 -24.383195 34.289397 155.859767 -27.300601 169.423389 -125.673199 4.209569 23.866322 69.474867 -19.959425 -6.250939 21.454550 0.003088 -0.000006 113.624561 7.283801 176.108177 -123.287988 -5.778629 14.448681 86.159216 -7.982201 8.603535 21.454557 -0.003107 -0.000019 15.177947 1.218190 2.354410 20.389257 2.002111 4.887341 20.072210 2.031695 4.875216 -18.081155 5.695614 5.188799 -17.482540 -1.738538 7.736209 89.270094 -78.341764 90.014503 -47.459129 4.515456 17.517622 -28.059826 -12.775085 1.050743 15.723444 3.345141 46.335238 75.530479 75.002294 -103.908815 -79.411058 1.510764 -10.392569 -36.979904 18.128411 -1.611673 7.373036 -7.467302 -33.204275 
